<svg xmlns="http://www.w3.org/2000/svg" width="21.769" height="20.5" viewBox="0 0 21.769 20.5">
  <g id="fav_on" fill="none">
    <path d="M10,1.727a1,1,0,0,1,1.778,0l2.307,4.481a1,1,0,0,0,.734.53l5,.785a1,1,0,0,1,.549,1.7L16.8,12.756a1,1,0,0,0-.284.868l.79,4.945a1,1,0,0,1-1.438,1.051l-4.531-2.285a1,1,0,0,0-.9,0L5.9,19.619a1,1,0,0,1-1.438-1.051l.79-4.945a1,1,0,0,0-.284-.868L1.4,9.222a1,1,0,0,1,.549-1.7l5-.785a1,1,0,0,0,.734-.53Z" stroke="none"/>
    <path d="M 10.88461494445801 4.369192123413086 L 9.466514587402344 7.12354564666748 C 9.02995491027832 7.971475601196289 8.206845283508301 8.566025733947754 7.264684677124023 8.713986396789551 L 4.217142105102539 9.192564964294434 L 6.379724502563477 11.33476638793945 C 7.064834594726563 12.01340579986572 7.383045196533203 12.98707580566406 7.230924606323242 13.9393253326416 L 6.749495506286621 16.95312881469727 L 9.533835411071777 15.54912567138672 C 9.950664520263672 15.33892631530762 10.41775512695313 15.22782611846924 10.88461494445801 15.22782611846924 C 11.35144519805908 15.22782611846924 11.81851482391357 15.33891582489014 12.23536491394043 15.54910659790039 L 15.01973533630371 16.95313453674316 L 14.53830528259277 13.93933582305908 C 14.38619518280029 12.98707580566406 14.70439529418945 12.01340579986572 15.38949489593506 11.33476638793945 L 17.55208969116211 9.192563056945801 L 14.50455474853516 8.713986396789551 C 13.5623950958252 8.566036224365234 12.7392749786377 7.971475601196289 12.30271530151367 7.12354564666748 L 10.88461494445801 4.369192123413086 M 10.88461494445801 1.184595108032227 C 11.23609447479248 1.184595108032227 11.58757495880127 1.365346908569336 11.77369499206543 1.726846694946289 L 14.08087539672852 6.208045959472656 C 14.2269344329834 6.49173641204834 14.49959564208984 6.688695907592773 14.81481552124023 6.73819637298584 L 19.8157958984375 7.52353572845459 C 20.6257152557373 7.650726318359375 20.94686508178711 8.644915580749512 20.36441421508789 9.22187614440918 L 16.79699516296387 12.75566577911377 C 16.56806564331055 12.98243618011475 16.46243476867676 13.30564594268799 16.51326560974121 13.62385559082031 L 17.30318450927734 18.56882667541504 C 17.40558624267578 19.2098560333252 16.89573287963867 19.72861862182617 16.31619262695313 19.72861862182617 C 16.1674633026123 19.72861862182617 16.01421737670898 19.69448280334473 15.86546516418457 19.61947631835938 L 11.33486461639404 17.33491516113281 C 11.19326972961426 17.26352119445801 11.03894233703613 17.22782325744629 10.88461494445801 17.22782325744629 C 10.73028755187988 17.22782325744629 10.57596015930176 17.26352119445801 10.43436527252197 17.33491516113281 L 5.903764724731445 19.61947631835938 C 5.755056381225586 19.69446182250977 5.601724624633789 19.72861862182617 5.453037261962891 19.72861862182617 C 4.873441696166992 19.72861862182617 4.363636016845703 19.20990562438965 4.466045379638672 18.56882667541504 L 5.255964279174805 13.62384605407715 C 5.306795120239258 13.30564594268799 5.201164245605469 12.98243618011475 4.972234725952148 12.75566577911377 L 1.404815673828125 9.22187614440918 C 0.8223648071289063 8.644915580749512 1.143514633178711 7.650726318359375 1.953435897827148 7.52353572845459 L 6.954415321350098 6.73819637298584 C 7.269624710083008 6.688695907592773 7.542294502258301 6.49173641204834 7.6883544921875 6.208045959472656 L 9.995534896850586 1.726846694946289 C 10.18165493011475 1.365346908569336 10.53313541412354 1.184595108032227 10.88461494445801 1.184595108032227 Z" stroke="none" fill="#2ba5ca"/>
  </g>
</svg>
