<svg xmlns="http://www.w3.org/2000/svg" width="25.238" height="24" viewBox="0 0 25.238 24">
  <g id="fav_on" fill="#9cc2f3">
    <path d="M 6.11428689956665 22.21883964538574 L 7.095546722412109 16.01572036743164 C 7.195206642150879 15.38572978973389 6.98548698425293 14.740309715271 6.534546852111816 14.28921985626221 L 2.094206809997559 9.847590446472168 C 2.094208717346191 9.847590446472168 2.09420919418335 9.847589492797852 2.094209671020508 9.847588539123535 L 8.29777717590332 8.86383056640625 C 8.927646636962891 8.76393985748291 9.476626396179199 8.365110397338867 9.76630687713623 7.796960353851318 L 12.61913681030273 2.201560258865356 C 12.61913299560547 2.201570272445679 12.6191349029541 2.201570272445679 12.61913681030273 2.201570272445679 C 12.61913871765137 2.201570272445679 12.619140625 2.201570272445679 12.61914157867432 2.201570272445679 L 15.47196674346924 7.796950340270996 C 15.76164722442627 8.365119934082031 16.31063652038574 8.763950347900391 16.94050598144531 8.86383056640625 L 23.14407730102539 9.847579956054688 C 23.14406394958496 9.847579002380371 23.14406394958496 9.847580909729004 23.14406585693359 9.84758186340332 L 18.7037467956543 14.28921985626221 C 18.2528076171875 14.74030017852783 18.04308700561523 15.38570976257324 18.14272689819336 16.01568984985352 L 19.12399673461914 22.21883010864258 C 19.12396812438965 22.2187671661377 19.12395095825195 22.21878051757813 19.12393379211426 22.21879196166992 L 13.52665710449219 19.36868095397949 C 13.24689674377441 19.22622108459473 12.93308639526367 19.15092086791992 12.61913681030273 19.15092086791992 C 12.3051872253418 19.15092086791992 11.99137687683105 19.22622108459473 11.71160697937012 19.36868095397949 L 6.114276885986328 22.21883010864258 L 6.11428689956665 22.21883964538574 Z" stroke="none"/>
    <path d="M 12.61913681030273 4.403127670288086 L 10.65718650817871 8.251180648803711 C 10.22266674041748 9.103420257568359 9.399187088012695 9.70166015625 8.454387664794922 9.851490020751953 L 4.188404083251953 10.52798271179199 L 7.241716384887695 13.58219051361084 C 7.918167114257813 14.25882053375244 8.232757568359375 15.22696018218994 8.083267211914063 16.17195892333984 L 7.408483505249023 20.43764114379883 L 11.25776672363281 18.47760009765625 C 11.6774263381958 18.26387977600098 12.14817714691162 18.15092086791992 12.61913681030273 18.15092086791992 C 13.09006690979004 18.15092086791992 13.56080722808838 18.26387023925781 13.98040676116943 18.4775505065918 L 17.82979774475098 20.43764114379883 L 17.1550178527832 16.1719799041748 C 17.00551605224609 15.22698974609375 17.32009696960449 14.25886058807373 17.99653625488281 13.58222007751465 L 21.04986190795898 10.52798080444336 L 16.78388595581055 9.851490020751953 C 15.83908653259277 9.70166015625 15.01560688018799 9.103420257568359 14.58107662200928 8.251180648803711 L 12.61913681030273 4.403127670288086 M 12.61913681030273 1.201564788818359 C 12.97182655334473 1.201564788818359 13.32451725006104 1.383489608764648 13.5100269317627 1.747339248657227 L 16.36285781860352 7.342729568481445 C 16.50818634033203 7.627769470214844 16.7811279296875 7.826059341430664 17.09712600708008 7.876171112060547 L 23.30068588256836 8.859920501708984 C 24.1075267791748 8.987870216369629 24.42883682250977 9.976850509643555 23.85127639770508 10.55457973480225 L 19.41095733642578 14.99622058868408 C 19.18472671508789 15.22251987457275 19.08044624328613 15.5434103012085 19.13044738769531 15.85947036743164 L 20.11171722412109 22.06258010864258 C 20.21308708190918 22.70339775085449 19.70317077636719 23.22088241577148 19.1243839263916 23.22088241577148 C 18.97444915771484 23.22088241577148 18.82000541687012 23.18620300292969 18.67023658752441 23.10993957519531 L 13.07289695739746 20.25979995727539 C 12.93035221099854 20.18721580505371 12.77474403381348 20.15092277526855 12.61913681030273 20.15092277526855 C 12.46352958679199 20.15092277526855 12.30792140960693 20.18721580505371 12.16537666320801 20.25979995727539 L 6.568037033081055 23.10995101928711 C 6.418312072753906 23.18618774414063 6.263790130615234 23.22088813781738 6.113899230957031 23.22088813781738 C 5.535055160522461 23.22088813781738 5.025180816650391 22.70344734191895 5.126565933227539 22.06258010864258 L 6.107826232910156 15.85947036743164 C 6.157827377319336 15.5434103012085 6.053556442260742 15.22251987457275 5.827316284179688 14.99622058868408 L 1.386997222900391 10.55459022521973 C 0.8094367980957031 9.976860046386719 1.130746841430664 8.987870216369629 1.937576293945313 8.859920501708984 L 8.141147613525391 7.876171112060547 C 8.457147598266602 7.826059341430664 8.730087280273438 7.627769470214844 8.875417709350586 7.342729568481445 L 11.72824668884277 1.747339248657227 C 11.91375637054443 1.383489608764648 12.26644706726074 1.201564788818359 12.61913681030273 1.201564788818359 Z" stroke="none" fill="#608dc9"/>
  </g>
</svg>
