<svg xmlns="http://www.w3.org/2000/svg" width="23.655" height="16" viewBox="0 0 23.655 16">
  <g id="그룹_531" data-name="그룹 531" transform="translate(-476 -60.751)">
    <g id="타원_101" data-name="타원 101" transform="translate(479 60.751)" fill="#fff" stroke="#565656" stroke-width="1.8">
      <circle cx="4" cy="4" r="4" stroke="none"/>
      <circle cx="4" cy="4" r="3.1" fill="none"/>
    </g>
    <g id="타원_102" data-name="타원 102" transform="translate(491.356 63.751)" fill="#fff" stroke="#565656" stroke-width="1.8">
      <circle cx="3" cy="3" r="3" stroke="none"/>
      <circle cx="3" cy="3" r="2.1" fill="none"/>
    </g>
    <g id="사각형_898" data-name="사각형 898" transform="translate(476 69.751)" fill="#fff" stroke="#565656" stroke-width="1.8">
      <path d="M4,0h6a4,4,0,0,1,4,4V6a1,1,0,0,1-1,1H1A1,1,0,0,1,0,6V4A4,4,0,0,1,4,0Z" stroke="none"/>
      <path d="M4,.9h6A3.1,3.1,0,0,1,13.1,4V6a.1.1,0,0,1-.1.1H1A.1.1,0,0,1,.9,6V4A3.1,3.1,0,0,1,4,.9Z" fill="none"/>
    </g>
    <path id="패스_294" data-name="패스 294" d="M-669.644-14118.506h6.451a1.172,1.172,0,0,1,.947,1.092v3.225h-7.173" transform="translate(1161 14189.814)" fill="#fff" stroke="#565656" stroke-linecap="round" stroke-linejoin="round" stroke-width="1.8"/>
  </g>
</svg>
